# xmcd
#
# Track frame offsets:
#	150
#	23672
#	40546
#	55863
#	74864
#	94158
#	115408
#	138892
#	159471
#	174292
#	191341
#	218856
#	240556
#	262824
#	289026
#	316036
#
# Disc length: 4518 seconds
#
# Revision: 1
# Processed by: cddbd v1.5.2PL0 Copyright (c) Steve Scherf et al.
# Submitted via: audiograbber 1.83.01
#
DISCID=d511a410
DTITLE=Albert Lee - Live At The Iridium
DYEAR=2013
DGENRE=Country
TTITLE0=I'm Ready
TTITLE1=Two Step Too
TTITLE2=Wheels
TTITLE3=Evangelina
TTITLE4=Restless
TTITLE5=Dreaming As One
TTITLE6=Runaway Train
TTITLE7=Luxury Liner
TTITLE8=Spellbound
TTITLE9=No One Can Make My Sunshine Smile
TTITLE10=Leave My Woman Alone
TTITLE11=Highwayman
TTITLE12=Till I Gain Control Again
TTITLE13=Rad Gumbo
TTITLE14=Country Boy
TTITLE15=Tear It Up
EXTD=
EXTT0=
EXTT1=
EXTT2=
EXTT3=
EXTT4=
EXTT5=
EXTT6=
EXTT7=
EXTT8=
EXTT9=
EXTT10=
EXTT11=
EXTT12=
EXTT13=
EXTT14=
EXTT15=
PLAYORDER=
